<?xml version="1.0" encoding="utf-8"?>
<!-- Generator: Adobe Illustrator 18.0.0, SVG Export Plug-In . SVG Version: 6.00 Build 0)  -->
<!DOCTYPE svg PUBLIC "-//W3C//DTD SVG 1.1//EN" "http://www.w3.org/Graphics/SVG/1.1/DTD/svg11.dtd">
<svg version="1.1" id="Layer_1" xmlns="http://www.w3.org/2000/svg" xmlns:xlink="http://www.w3.org/1999/xlink" x="0px" y="0px"
	 width="512px" height="512px" viewBox="0 0 512 512" enable-background="new 0 0 512 512" xml:space="preserve">
<g>
	<g>
		<linearGradient id="SVGID_1_" gradientUnits="userSpaceOnUse" x1="8" y1="256" x2="504" y2="256">
			<stop  offset="0" style="stop-color:#FF2626"/>
			<stop  offset="1" style="stop-color:#D90000"/>
		</linearGradient>
		<polygon fill="url(#SVGID_1_)" points="163.831,504 8,346.088 8,140.965 163.456,8 369.473,8 504,140.624 504,346.418 
			369.087,504 		"/>
		<path fill="#FFFFFF" d="M366.182,16L496,143.96v199.497L365.41,496H167.166L16,342.796V144.643L166.417,16H366 M372.764,0H160.495
			L0,137.288V349.38L160.495,512h212.269L512,349.38V137.288L372.764,0L372.764,0z"/>
	</g>
	<g>
		<path fill="#FFFFFF" d="M336.07,378.573h-22.202v-35.599h-0.766c-6.381,13.271-15.634,23.481-27.752,30.622
			c-12.123,7.142-25.586,10.719-40.383,10.719c-8.17,0-16.143-1.089-23.924-3.254c-7.787-2.171-14.737-5.551-20.862-10.144v80.768
			h-24.498v-270.63h24.115v128.616c0.508,17.865,4.653,31.389,12.441,40.575c7.781,9.187,21.244,13.78,40.384,13.78
			c10.46,0,19.39-2.23,26.794-6.698c7.398-4.462,13.523-10.396,18.374-17.8c4.845-7.398,8.421-15.886,10.718-25.455
			c2.297-9.57,3.445-19.331,3.445-29.283V181.056h24.115V378.573z"/>
	</g>
</g>
<g>
</g>
<g>
</g>
<g>
</g>
<g>
</g>
<g>
</g>
<g>
</g>
<g>
</g>
<g>
</g>
<g>
</g>
<g>
</g>
<g>
</g>
<g>
</g>
<g>
</g>
<g>
</g>
<g>
</g>
</svg>
