<?xml version="1.0" encoding="utf-8" ?>
<!-- Generator: Adobe Illustrator 18.0.0, SVG Export Plug-In . SVG Version: 6.00 Build 0)  -->
<!DOCTYPE svg PUBLIC "-//W3C//DTD SVG 1.1//EN" "http://www.w3.org/Graphics/SVG/1.1/DTD/svg11.dtd">
<svg version="1.1" id="Layer_1" xmlns="http://www.w3.org/2000/svg" xmlns:xlink="http://www.w3.org/1999/xlink" x="0px" y="0px" width="16px" height="16px" viewBox="0 0 16 16" enable-background="new 0 0 16 16" xml:space="preserve">
	<g>
		<linearGradient id="SVGID_1_" gradientUnits="userSpaceOnUse" x1="0" y1="8" x2="16" y2="8">
			<stop offset="0" style="stop-color:#FF2626" />
			<stop offset="1" style="stop-color:#D90000" />
		</linearGradient>
		<polygon fill="url(#SVGID_1_)" points="4.701,16 0,11.36 0,4.829 4.701,0 11.232,0 16,4.829 16,11.36 11.232,16 	" />
		<g>
			<path fill="#FFFFFF" d="M10.953,11.868H9.338v-0.861H9.303c-0.111,0.176-0.238,0.327-0.377,0.455
			c-0.14,0.127-0.281,0.232-0.425,0.316S8.22,11.926,8.088,11.97c-0.131,0.044-0.245,0.065-0.341,0.065
			c-0.239,0-0.431-0.027-0.574-0.083s-0.251-0.124-0.323-0.203v2.296H5.151V5.684H6.85v3.493c0,0.511,0.08,0.892,0.239,1.143
			c0.159,0.251,0.442,0.377,0.849,0.377c0.462,0,0.797-0.138,1.005-0.413c0.207-0.275,0.311-0.728,0.311-1.358V5.684h1.699V11.868z" />
		</g>
	</g>
</svg>